<svg id="Layer_1" data-name="Layer 1" xmlns="http://www.w3.org/2000/svg" xmlns:xlink="http://www.w3.org/1999/xlink" viewBox="0 0 1000 1000"><defs><style>.cls-1{fill:none;}.cls-2{fill:#88c5cc;}.cls-3{clip-path:url(#clip-path);}.cls-4{fill:#cc803d;}.cls-5{fill:#b37035;}.cls-6{fill:#ffc066;}.cls-7{fill:#e6ad5c;}.cls-8{fill:#bf7839;}.cls-9{fill:#f5f5f5;}.cls-10{fill:#242424;}.cls-11{fill:#e69750;}.cls-12{fill:#99602d;}</style><clipPath id="clip-path"><circle class="cls-1" cx="500.21" cy="499.79" r="499.79"/></clipPath></defs><title>brownArtboard 1</title><g id="bear"><circle class="cls-2" cx="500.21" cy="499.79" r="499.79"/><g class="cls-3"><path class="cls-4" d="M172.22,734.07c0-107.83,146.85-195.23,328-195.23s328,87.4,328,195.23V1023h-656Z"/><path class="cls-5" d="M741.4,601.81c-59.93-38.71-145.79-63-241.19-63-88.8,0-169.31,21-228.37,55.16C304.77,692.3,394.15,757.49,508,757.49,618.84,757.49,706.45,695.72,741.4,601.81Z"/><path class="cls-6" d="M267.44,771.1c0-76.52,104.22-138.55,232.77-138.55S733,694.58,733,771.1v244.1H267.44Z"/><path class="cls-7" d="M323.49,681C368.13,728.8,432.64,757.49,508,757.49c71.79,0,133.72-26,178-69.81-42.49-33.49-109.91-55.13-185.83-55.13C429.49,632.55,366.18,651.34,323.49,681Z"/><path class="cls-4" d="M500.21,741.87c-144.68,0-249.89-105.2-249.89-249.89V429.51c-37.49-6.71-62.48-35.39-62.48-78.1,0-49.62,28.46-78.09,78.09-78.09,17.86,0,45.28,13.81,62.48,31.24C370,274.21,433,257.7,500.21,257.7s130.2,16.51,171.8,46.86c17.2-17.43,44.62-31.24,62.48-31.24,49.63,0,78.09,28.47,78.09,78.09,0,42.71-25,71.39-62.47,78.1V492C750.11,636.67,644.89,741.87,500.21,741.87Z"/><path class="cls-8" d="M312.79,312.37c4.22-3.09,11-5,15.62-7.81-15.62-15.62-39.05-31.24-62.48-31.24a113.87,113.87,0,0,0-14.75,1C268.42,277.64,298.18,297.56,312.79,312.37Z"/><path class="cls-8" d="M664.2,312.37c3-3.08,4.24-5,7.81-7.81-39-31.24-109.33-46.86-171.8-46.86-3.92,0-7.82.07-11.71.18C551.24,259.69,625,283.79,664.2,312.37Z"/><path class="cls-8" d="M734.49,273.32a47.35,47.35,0,0,0-8.67,1C766.26,279.55,797,307,797,351.41c0,42.71-32.8,71.39-70.28,78.1V492c0,140.75-99.58,244.1-238.18,249.63,3.88.15,7.78.26,11.71.26,144.68,0,249.9-105.2,249.9-249.89V429.51c37.48-6.71,62.47-35.39,62.47-78.1C812.58,301.79,784.12,273.32,734.49,273.32Z"/><circle class="cls-9" cx="593.92" cy="429.51" r="39.05"/><circle class="cls-9" cx="406.5" cy="429.51" r="39.05"/><circle class="cls-10" cx="406.5" cy="429.51" r="15.62"/><circle class="cls-10" cx="593.92" cy="429.51" r="15.62"/><ellipse class="cls-11" cx="500.21" cy="616.93" rx="163.99" ry="124.95"/><ellipse class="cls-10" cx="500.21" cy="570.07" rx="70.28" ry="46.86"/><path class="cls-12" d="M325.43,333.15,311.73,321c-13.7-13.89-35.48-24.27-45.8-24.27-36.78,0-54.66,17.88-54.66,54.66,0,30.06,15.74,50.12,43.17,55l16.65,3C279.71,380,298.83,353.94,325.43,333.15Z"/><path class="cls-12" d="M675,333.15,688.69,321c13.71-13.89,35.48-24.27,45.8-24.27,36.78,0,54.66,17.88,54.66,54.66,0,30.06-15.74,50.12-43.17,55l-16.65,3C720.71,380,701.6,353.94,675,333.15Z"/></g></g></svg>