<svg id="Layer_1" data-name="Layer 1" xmlns="http://www.w3.org/2000/svg" xmlns:xlink="http://www.w3.org/1999/xlink" viewBox="0 0 1000 1000"><defs><style>.cls-1{fill:none;}.cls-2{fill:#f2cf61;}.cls-3{clip-path:url(#clip-path);}.cls-4{fill:#333;}.cls-5{fill:#404040;}.cls-6{fill:#b3b3b3;}.cls-7{fill:#1a1a1a;}.cls-8{fill:#0d0d0d;}.cls-9{fill:#f5f5f5;}.cls-10{fill:#242424;}</style><clipPath id="clip-path"><ellipse class="cls-1" cx="498.87" cy="500" rx="498.87" ry="500"/></clipPath></defs><title>koalaArtboard 1</title><g id="coala_bear" data-name="coala bear"><ellipse class="cls-2" cx="501.13" cy="500" rx="498.87" ry="500"/><g class="cls-3"><path class="cls-4" d="M682.73,622.27c-44.86-41.95-118.91-57.82-181.6-57.82S364.4,580.32,319.54,622.27c-61,76.86-130,260.77-130,260.77-6.31,19.8-6.31,38.58-6.31,53.09,0,163,267.63,174.35,317.86,174.35S819,1099.1,819,936.13c0-14.51,0-33.29-6.32-53.09C812.68,883,766,694.86,682.73,622.27Z"/><path class="cls-5" d="M682.73,662.64c-44.86-41.95-118.91-57.81-181.6-57.81S364.4,620.69,319.54,662.64c-61,76.86-130,260.77-130,260.77-6.31,19.81-6.31,38.58-6.31,53.1,0,163,267.63,174.35,317.86,174.35S819,1139.47,819,976.51c0-14.52,0-33.29-6.32-53.1C812.68,923.41,766,735.24,682.73,662.64Z"/><path class="cls-4" d="M626.83,319a127.71,127.71,0,0,1,7.9-10.85c-39.4-36.68-93.72-42.54-133.6-42.54-3.83,0-7.75.12-11.69.29C532.8,267.73,596.58,290.72,626.83,319Z"/><path class="cls-4" d="M355,320.31c4.47-4.17,7.39-8.66,12.56-12.15-28.63-40.58-69.5-62.07-119.74-62.07a64.17,64.17,0,0,0-9.07.71C288.16,251.26,334.22,290.45,355,320.31Z"/><path class="cls-4" d="M754.46,246.09c-4.91,0-9.65.29-14.31.71,28.7,4.13,49.39,27.59,49.39,57.89V440.53c0,35-24,59.47-58.46,59.47h23.38c34.43,0,58.47-24.45,58.47-59.47V304.69C812.93,271.27,787.79,246.09,754.46,246.09Z"/><path class="cls-5" d="M754.46,246.09c-57,0-97,29.39-119.73,62.07-33-30.86-87.48-42.54-133.6-42.54S400.54,277.3,367.54,308.16c-22.72-32.68-62.72-62.07-119.74-62.07-33.32,0-58.46,25.18-58.46,58.6V440.53c0,35,24,59.47,58.46,59.47h24.13c-4.64,14.57-4.64,28.38-4.64,39.06C267.29,659,323,729.12,432.94,748.41V735.68c0-37,31.24-68.35,68.19-68.35s68.2,31.31,68.2,68.35v12.73C679.32,729.12,735,659,735,539.06c0-10.68,0-24.49-4.65-39.06h24.13c34.43,0,58.47-24.45,58.47-59.47V304.69C812.93,271.27,787.79,246.09,754.46,246.09Z"/><path class="cls-6" d="M501.13,753.91a395.19,395.19,0,0,0,68.2-5.5V673.18c0-37-31.24-68.35-68.2-68.35s-68.19,31.31-68.19,68.35v75.23A395.07,395.07,0,0,0,501.13,753.91Z"/><path class="cls-4" d="M570.46,748.2C679.7,728.62,735,658.53,735,539.06c0-10.68,0-24.49-4.65-39.06H707c4.64,14.57,4.64,28.38,4.64,39.06,0,111-47.87,179.25-142.26,204.08v5.27Z"/><path class="cls-7" d="M547.9,679.69c0,5-20.94,9.11-46.77,9.11s-46.76-4.08-46.76-9.11,20.93-9.11,46.76-9.11S547.9,674.66,547.9,679.69Z"/><path class="cls-7" d="M501.13,675.78c-32.23,0-58.46-25.42-58.46-56.67V539.06c0-31.75,26.78-58.59,58.46-58.59s58.46,26.84,58.46,58.59v80.05C559.59,650.36,533.37,675.78,501.13,675.78Z"/><path class="cls-8" d="M501.13,480.47a56.63,56.63,0,0,0-11.69,1.23c26.31,5.61,46.77,29.61,46.77,57.36v80.05c0,27.37-20.12,50.26-46.77,55.53a60.81,60.81,0,0,0,11.69,1.14c32.24,0,58.46-25.42,58.46-56.67V539.06C559.59,507.31,532.82,480.47,501.13,480.47Z"/><path class="cls-9" d="M403.7,500a58.6,58.6,0,1,1,58.46-58.59A58.59,58.59,0,0,1,403.7,500Z"/><ellipse class="cls-10" cx="403.7" cy="441.41" rx="19.49" ry="19.53"/><path class="cls-9" d="M598.57,500A58.6,58.6,0,1,1,657,441.41,58.59,58.59,0,0,1,598.57,500Z"/><ellipse class="cls-10" cx="598.57" cy="441.41" rx="19.49" ry="19.53"/><path class="cls-6" d="M346.9,333.12,342,326c-12.65-18.18-41.7-48.69-94.17-48.69-16.06,0-27.28,11.25-27.28,27.35V440.53c0,17.67,10.2,28.22,27.28,28.22h30.38C292.92,421.68,321,368.4,346.9,333.12Z"/><path class="cls-6" d="M655.37,333.12,660.3,326C673,307.85,702,277.34,754.46,277.34c16.07,0,27.29,11.25,27.29,27.35V440.53c0,17.67-10.2,28.22-27.29,28.22H724.09C709.35,421.68,681.26,368.4,655.37,333.12Z"/></g></g></svg>