<svg id="Layer_1" data-name="Layer 1" xmlns="http://www.w3.org/2000/svg" xmlns:xlink="http://www.w3.org/1999/xlink" viewBox="0 0 1000 1000"><defs><style>.cls-1{fill:none;}.cls-2{fill:#88c571;}.cls-3{clip-path:url(#clip-path);}.cls-4{fill:#242424;}.cls-5{fill:#b3b3b3;}.cls-6{fill:#e6e6e6;}.cls-7{fill:#f5f5f5;}</style><clipPath id="clip-path"><circle class="cls-1" cx="500" cy="500" r="500"/></clipPath></defs><title>pandaArtboard 1</title><g id="panda_bear" data-name="panda bear"><circle class="cls-2" cx="500" cy="500" r="500"/><g class="cls-3"><path class="cls-4" d="M847.68,698.76c-32.31-40.32-96.94-99.31-143.27-124.8-64-35.24-135.12-44.29-204.41-44.29S359.63,538.72,295.59,574c-46.33,25.49-111,84.48-143.27,124.8C120.86,738,91.15,799.86,91.15,861.84,91.15,1041.89,278.38,1194,500,1194s408.85-152.12,408.85-332.17C908.85,799.86,879.14,738,847.68,698.76Z"/><path class="cls-4" d="M272.07,191.25a88.15,88.15,0,0,0-30.56,5.61c-25,9.23-45,29-56.43,55.69s-12.91,57.23-4.23,86.06a98.37,98.37,0,0,0,53.67,61.79C254.33,365.49,341,263.91,363.28,249.24,347.58,208.7,309.85,191.25,272.07,191.25Z"/><path class="cls-5" d="M241.92,372.46a68,68,0,0,1-15.53-27.26c-6.56-21.81-5.49-44.81,3-64.72,8-18.73,21.7-32.46,38.53-38.68a56.87,56.87,0,0,1,19.74-3.67c11.27,0,35.31,2.33,51.41,20.36C310.17,287.16,268,337.1,241.92,372.46Z"/><path class="cls-4" d="M727.93,191.25a88.15,88.15,0,0,1,30.56,5.61c25,9.23,45,29,56.43,55.69s12.91,57.23,4.23,86.06a98.37,98.37,0,0,1-53.67,61.79C745.67,365.49,659,263.91,636.72,249.24,652.42,208.7,690.15,191.25,727.93,191.25Z"/><path class="cls-5" d="M758.08,372.46c-26-35.36-68.25-85.3-97.19-114,16.1-18,40.14-20.36,51.41-20.36a56.85,56.85,0,0,1,19.76,3.68c16.81,6.21,30.5,19.94,38.5,38.65,8.54,19.93,9.61,42.93,3.05,64.77A68,68,0,0,1,758.08,372.46Z"/><path class="cls-6" d="M762.7,359.38c-24.42-35.15-73.25-86.58-108.25-108.81C606.06,219.85,552.35,212,500,212s-106.06,7.89-154.45,38.61c-35,22.23-83.83,73.66-108.25,108.81-23.77,34.24-46.21,88.14-46.21,142.18,0,157,141.46,289.61,308.91,289.61S808.91,658.55,808.91,501.56C808.91,447.52,786.47,393.62,762.7,359.38Z"/><path class="cls-4" d="M289.78,540.18h0C265,540.18,249,525.4,249,502.49c0-45.82,62.54-135.15,115.84-135.15,67.48,0,110.8,63.8,112.6,66.52a19.32,19.32,0,0,1-5.79,27.05C458.77,469,344.07,540.18,289.78,540.18Z"/><path class="cls-7" d="M364.85,482.71a39.06,39.06,0,1,1,39.06-39.07A39.11,39.11,0,0,1,364.85,482.71Z"/><circle class="cls-4" cx="364.85" cy="443.65" r="15.62"/><path class="cls-4" d="M710.25,540.18h0C735,540.18,751,525.4,751,502.49c0-45.82-62.56-135.15-115.85-135.15-67.49,0-110.78,63.8-112.59,66.52a19.29,19.29,0,0,0,5.77,27.05C541.23,469,655.94,540.18,710.25,540.18Z"/><path class="cls-7" d="M635.16,482.71a39.06,39.06,0,1,0-39-39.07A39.12,39.12,0,0,0,635.16,482.71Z"/><circle class="cls-4" cx="635.17" cy="443.65" r="15.63"/><path class="cls-4" d="M519,635.11c37.37-6.24,57.74-31.43,75.52-67A19.32,19.32,0,0,0,593.44,549c-13.36-20.64-62.45-28.13-92.16-28.13h-2.56c-29.71,0-78.8,7.49-92.16,28.13a19.32,19.32,0,0,0-1.06,19.12c17.78,35.56,38.15,60.75,75.52,67h3.35v24.46L432,702.25a15.62,15.62,0,1,0,19.75,24.21L500,687.15l48.23,39.31A15.62,15.62,0,0,0,568,702.25l-52.35-42.68V635.11Z"/></g></g></svg>