<svg id="Layer_1" data-name="Layer 1" xmlns="http://www.w3.org/2000/svg" xmlns:xlink="http://www.w3.org/1999/xlink" viewBox="0 0 1000 1000"><defs><style>.cls-1{fill:none;}.cls-2{fill:#b2e3ff;}.cls-3{clip-path:url(#clip-path);}.cls-4{fill:#fff;}.cls-5{fill:#f0ecec;}.cls-6{fill:#e9e9e9;}.cls-7{fill:#f5f5f5;}.cls-8{fill:#242424;}.cls-9{fill:#d7d7d7;}.cls-10{fill:#e0dfd9;}</style><clipPath id="clip-path"><circle class="cls-1" cx="500" cy="500" r="500"/></clipPath></defs><title>polarArtboard 1</title><g id="polar_bear" data-name="polar bear"><circle class="cls-2" cx="500" cy="500" r="500"/><g class="cls-3"><path class="cls-4" d="M106.58,813.58C106.58,684.24,282.73,579.4,500,579.4S893.42,684.24,893.42,813.58v346.58H106.58Z"/><path class="cls-4" d="M789.31,654.94C717.42,608.51,614.44,579.4,500,579.4c-106.51,0-203.08,25.24-273.92,66.17,39.49,117.91,146.7,196.11,283.29,196.11C642.3,841.68,747.38,767.59,789.31,654.94Z"/><path class="cls-5" d="M220.8,858c0-91.79,125-166.2,279.2-166.2S779.2,766.21,779.2,858v292.79H220.8Z"/><path class="cls-5" d="M288,749.9c53.54,57.36,130.92,91.78,221.34,91.78,86.1,0,160.39-31.23,213.53-83.75-51-40.16-131.84-66.13-222.9-66.13C415.17,691.8,339.23,714.35,288,749.9Z"/><path class="cls-4" d="M500,822.94c-173.55,0-299.74-126.19-299.74-299.74V448.26c-45-8.05-74.94-42.44-74.94-93.67,0-59.53,34.14-93.67,93.67-93.67,21.42,0,54.31,16.57,74.94,37.47,49.89-36.41,125.5-56.2,206.07-56.2S656.18,262,706.07,298.39c20.63-20.9,53.52-37.47,74.94-37.47,59.53,0,93.67,34.14,93.67,93.67,0,51.23-30,85.62-74.94,93.67V523.2C799.74,696.75,673.55,822.94,500,822.94Z"/><path class="cls-6" d="M275.19,307.76c5.07-3.7,13.16-6,18.74-9.37-18.74-18.73-46.84-37.47-74.94-37.47a137,137,0,0,0-17.7,1.19C222,266.1,257.66,290,275.19,307.76Z"/><path class="cls-6" d="M696.71,307.76c3.65-3.7,5.08-6,9.36-9.37-46.83-37.47-131.13-56.2-206.07-56.2-4.7,0-9.39.08-14.05.21C561.21,244.57,649.72,273.48,696.71,307.76Z"/><path class="cls-6" d="M781,260.92a56.54,56.54,0,0,0-10.4,1.19C819.12,268.4,856,301.27,856,354.59c0,51.23-39.35,85.62-84.31,93.67V523.2C771.64,692,652.2,816,486,822.62c4.66.19,9.33.32,14.05.32,173.55,0,299.74-126.19,299.74-299.74V448.26c45-8.05,74.94-42.44,74.94-93.67C874.68,295.06,840.54,260.92,781,260.92Z"/><circle class="cls-7" cx="612.4" cy="448.26" r="46.84"/><circle class="cls-7" cx="387.6" cy="448.26" r="46.84"/><circle class="cls-8" cx="387.6" cy="448.26" r="18.73"/><circle class="cls-8" cx="612.4" cy="448.26" r="18.73"/><ellipse class="cls-9" cx="500" cy="673.07" rx="196.71" ry="149.87"/><ellipse class="cls-8" cx="500" cy="616.87" rx="84.3" ry="56.2"/><path class="cls-10" d="M290.35,332.69l-16.43-14.56C257.48,301.47,231.37,289,219,289c-44.12,0-65.57,21.45-65.57,65.57,0,36.06,18.88,60.12,51.78,66l20,3.57C235.52,388.85,258.44,357.62,290.35,332.69Z"/><path class="cls-10" d="M709.65,332.69l16.43-14.56C742.52,301.47,768.63,289,781,289c44.12,0,65.57,21.45,65.57,65.57,0,36.06-18.88,60.12-51.78,66l-20,3.57C764.48,388.85,741.56,357.62,709.65,332.69Z"/></g></g></svg>